<svg width="48" height="49" viewBox="0 0 48 49" fill="none" xmlns="http://www.w3.org/2000/svg">
<path d="M23.5935 48.9625C16.8691 48.8157 11.1992 46.4373 6.58368 41.8271C3.5366 38.8128 1.44827 34.9697 0.579802 30.7783C-0.346641 26.5297 -0.160342 22.1149 1.12076 17.9589C2.34413 13.8143 4.59211 10.0425 7.65832 6.98988C12.1736 2.4894 17.4837 0.161753 23.5886 0.00695296C29.6936 -0.147847 35.26 2.28219 40.2879 7.29707C45.2155 12.2087 47.782 17.9896 47.9874 24.6395C48.1928 31.2895 45.8842 37.0187 41.0617 41.8271C36.1373 46.7404 30.3146 49.1189 23.5935 48.9625Z" fill="white"/>
<mask id="mask0_442_367" style="mask-type:alpha" maskUnits="userSpaceOnUse" x="0" y="0" width="48" height="49">
<path d="M23.5935 48.9625C16.8691 48.8157 11.1992 46.4373 6.58368 41.8271C3.5366 38.8128 1.44827 34.9697 0.579802 30.7783C-0.346641 26.5297 -0.160342 22.1149 1.12076 17.9589C2.34413 13.8143 4.59211 10.0425 7.65832 6.98988C12.1736 2.4894 17.4837 0.161753 23.5886 0.00695296C29.6936 -0.147847 35.26 2.28219 40.2879 7.29707C45.2155 12.2087 47.782 17.9896 47.9874 24.6395C48.1928 31.2895 45.8842 37.0187 41.0617 41.8271C36.1373 46.7404 30.3146 49.1189 23.5935 48.9625Z" fill="white"/>
</mask>
<g mask="url(#mask0_442_367)">
<path d="M28.5333 35.1423C26.9893 33.8763 28.4225 26.6377 28.4225 26.6377H19.6783C19.6783 26.6377 21.1115 33.8718 19.5675 35.1423C18.0235 36.4128 7.89118 36.2523 8.82257 48.9866H38.5593C39.71 36.2206 30.0773 36.406 28.5333 35.1423Z" fill="#F19C7C"/>
<path d="M28.0879 34.4189C27.3238 32.1899 28.4225 26.6377 28.4225 26.6377H19.6782C19.6782 26.6377 20.2683 29.6218 20.2818 32.0949C22.4837 33.7565 25.2508 34.4144 28.0879 34.4189Z" fill="#D67558"/>
<path d="M26.4085 42.4256C20.8201 42.4256 15.2069 42.2899 9.60948 42.3171C9.15447 43.5354 8.88323 44.8146 8.80469 46.1127C13.3554 47.5301 25.0815 50.2746 38.6454 46.3953C38.6235 45.0446 38.405 43.7042 37.9966 42.4165L26.4085 42.4256Z" fill="#EFA084"/>
<path d="M14.339 23.7756C14.7685 25.3445 15.9757 26.7371 16.9252 26.4771C17.8747 26.2171 18.2047 24.4063 17.7774 22.8374C17.3502 21.2685 16.3216 20.5361 15.3721 20.8028C14.4226 21.0696 13.9117 22.2067 14.339 23.7756Z" fill="#D67558"/>
<path d="M33.6676 23.7755C33.2381 25.3444 32.0309 26.737 31.0814 26.477C30.1319 26.217 29.7996 24.4108 30.2314 22.8283C30.6632 21.2458 31.6872 20.527 32.6345 20.7937C33.5817 21.0605 34.0948 22.2066 33.6676 23.7755Z" fill="#D67558"/>
<path d="M16.1339 21.3253C16.1655 30.1713 19.6831 33.3905 24.0643 33.3905C28.4455 33.3905 31.9902 30.0131 31.9924 21.3253C31.9924 15.3549 28.4432 11.7695 24.0643 11.7695C19.6854 11.7695 16.1113 15.3549 16.1339 21.3253Z" fill="#F19C7C"/>
<path d="M16.2351 23.8955L16.6104 18.7728C16.6104 18.7728 18.0436 18.1692 18.0436 15.9086C18.2452 16.2538 18.5169 16.5529 18.8413 16.7865C19.1657 17.0202 19.5354 17.1832 19.9268 17.265L19.5492 16.3607L20.831 17.5656C20.831 17.5656 21.5838 17.4164 22.036 16.3607C22.036 16.3607 22.036 17.5656 21.6607 17.7917C21.6607 17.7917 23.0917 18.0946 23.6953 16.3607C23.6953 16.3607 23.6184 17.491 23.0917 18.0946C23.0917 18.0946 24.9002 18.2438 24.9748 16.4353C24.9748 16.4353 25.0517 17.6425 25.8791 17.8685L25.9559 16.3607C25.9559 16.3607 26.4081 17.491 27.4615 17.8685C27.4615 17.8685 27.9905 17.1904 27.6876 15.9832C27.6876 15.9832 28.2912 17.1904 28.1397 18.1692C28.1397 18.1692 29.6476 17.3034 29.1955 16.0216C29.1955 16.0216 29.6092 18.0946 31.3431 18.4699C31.3431 18.4699 31.5307 22.0123 31.8337 23.8209C31.8337 23.8209 32.4395 22.3017 32.3988 20.882C32.5734 20.8318 32.7601 20.8454 32.9256 20.9204C32.9256 20.9204 35.9775 10.483 25.653 9.6533C14.2548 8.74904 14.5012 17.7555 15.0279 20.9566C15.1585 20.9162 15.2993 20.9246 15.4241 20.9803C15.5488 21.0361 15.6491 21.1353 15.7061 21.2595C15.7061 21.2595 15.5252 23.2941 16.2351 23.8955Z" fill="#76413B"/>
<path d="M24.3741 22.3135C24.4351 22.4853 24.5007 22.6481 24.5708 22.8131C24.6409 22.9781 24.7087 23.1431 24.7742 23.3059L25.1925 24.287C25.3258 24.6148 25.4728 24.9381 25.6107 25.2614C25.6808 25.4219 25.7576 25.5824 25.8368 25.7384C25.9033 25.8933 25.9788 26.0443 26.0628 26.1905L26.1781 26.3804L25.9995 26.498C25.8571 26.5906 25.7102 26.6743 25.5474 26.7579C25.3938 26.8409 25.2344 26.9127 25.0704 26.9727C24.989 27.0042 24.906 27.0314 24.8217 27.0541C24.7388 27.08 24.6542 27.1004 24.5685 27.1151C24.485 27.134 24.4004 27.1483 24.3153 27.1581C24.2294 27.1716 24.1435 27.1762 24.0576 27.1829C24.2046 27.0925 24.356 27.0157 24.5097 26.932C24.6635 26.8484 24.8014 26.7692 24.9393 26.6811C25.0772 26.5929 25.2106 26.5025 25.3462 26.4121C25.4818 26.3216 25.613 26.2199 25.7531 26.1272L25.6898 26.4347C25.5885 26.2758 25.4964 26.1113 25.414 25.9418C25.3349 25.7768 25.2648 25.6095 25.1879 25.4422C25.1111 25.2749 25.05 25.1099 24.9913 24.9381L24.8149 24.4295C24.7607 24.2576 24.7109 24.0836 24.6612 23.9118C24.6115 23.74 24.5685 23.5636 24.5256 23.3873C24.4826 23.211 24.451 23.0346 24.4193 22.8583C24.3918 22.6779 24.3767 22.4959 24.3741 22.3135Z" fill="#D85E41"/>
<path d="M21.7788 28.5293C21.7788 28.5293 21.8512 28.5836 21.9823 28.6627C22.0478 28.7034 22.1292 28.7508 22.2219 28.8006C22.3146 28.8503 22.4208 28.9023 22.5384 28.9543C22.6559 29.0063 22.7893 29.0515 22.9204 29.1058C23.0516 29.16 23.2053 29.1939 23.359 29.2211C23.4359 29.2346 23.5105 29.2595 23.5851 29.2663L23.8247 29.2934C23.9885 29.3085 24.1531 29.3146 24.3175 29.3115C24.4826 29.2957 24.6499 29.2979 24.8126 29.2685C24.9754 29.2391 25.1359 29.2256 25.2896 29.1804C25.4433 29.1352 25.5925 29.1012 25.7417 29.0651C25.891 29.0289 26.013 28.9701 26.1351 28.9294L26.3137 28.8707L26.4719 28.8051C26.5692 28.7621 26.6573 28.7282 26.7297 28.7011C26.8766 28.6446 26.9557 28.6175 26.9557 28.6175L26.7704 28.778C26.7093 28.83 26.637 28.891 26.5443 28.9588L26.4064 29.0673L26.2391 29.1668C26.1215 29.2369 25.9949 29.3115 25.857 29.3929C25.7191 29.4743 25.5586 29.5172 25.4049 29.5782C25.2352 29.6338 25.0624 29.6791 24.8872 29.7139C24.7086 29.7501 24.521 29.7568 24.3356 29.7772C24.149 29.7755 23.9625 29.7634 23.7772 29.741C23.5955 29.7149 23.4168 29.671 23.2437 29.6099C23.0833 29.5602 22.9275 29.4967 22.778 29.42C22.646 29.3542 22.519 29.2786 22.3982 29.1939C22.296 29.1213 22.1993 29.0412 22.1089 28.9543C22.0401 28.888 21.9752 28.8178 21.9144 28.7441C21.8631 28.6765 21.8178 28.6047 21.7788 28.5293Z" fill="#D85E41"/>
<path d="M25.208 21.7115C25.236 21.6235 25.2731 21.5386 25.3188 21.4583C25.3673 21.366 25.4216 21.2769 25.4815 21.1916C25.5609 21.079 25.6486 20.9724 25.7438 20.8728L25.9133 20.7078C25.9766 20.6535 26.0467 20.6038 26.1168 20.5496C26.1874 20.493 26.2631 20.443 26.3429 20.4004C26.4255 20.3499 26.5108 20.3039 26.5983 20.2625C26.7854 20.1775 26.9819 20.1152 27.1838 20.0771C27.2877 20.0514 27.3936 20.0347 27.5003 20.0273H27.8259C27.9338 20.0281 28.0414 20.0402 28.1469 20.0635C28.2539 20.0786 28.3579 20.0989 28.4588 20.1246C28.6517 20.1882 28.8405 20.2637 29.024 20.3506C29.1913 20.4501 29.3473 20.5541 29.4897 20.6535C29.6321 20.753 29.7361 20.8796 29.8401 20.9904L29.987 21.1464L30.0956 21.3069C30.1656 21.4041 30.2199 21.4968 30.2628 21.5691C30.351 21.7183 30.3917 21.7952 30.3917 21.7952C30.3917 21.7952 30.2945 21.7613 30.1408 21.6912C30.0639 21.655 29.9712 21.6121 29.8718 21.5601L29.7135 21.4764L29.5327 21.4018C29.4061 21.3498 29.2772 21.2888 29.1416 21.2278C29.0059 21.1667 28.8545 21.1328 28.7098 21.0763C28.5651 21.0198 28.4046 21.0085 28.2576 20.961C28.1785 20.961 28.1017 20.9474 28.0316 20.9361C27.9573 20.9203 27.8815 20.9127 27.8055 20.9135C27.6501 20.9063 27.4944 20.9116 27.3398 20.9293C27.1878 20.9452 27.0368 20.9701 26.8877 21.0039C26.8131 21.0198 26.743 21.0492 26.6616 21.0672C26.589 21.0837 26.5179 21.1064 26.4491 21.1351L26.2457 21.2074L26.0558 21.2865C25.9314 21.3363 25.8297 21.3928 25.7167 21.438C25.6036 21.4832 25.5245 21.5329 25.4544 21.5736L25.208 21.7115Z" fill="#76413B"/>
<path d="M17.4717 21.9812C17.4748 21.9559 17.4801 21.9309 17.4875 21.9066C17.5027 21.8381 17.5231 21.7708 17.5485 21.7054C17.5861 21.6019 17.6314 21.5014 17.6842 21.4047C17.7492 21.278 17.8248 21.157 17.9102 21.043C18.0173 20.9049 18.1377 20.7777 18.2697 20.6632C18.3416 20.6015 18.4171 20.5441 18.4958 20.4914L18.6201 20.4055L18.7603 20.3354C18.8552 20.2846 18.9534 20.2401 19.0541 20.202C19.1581 20.1704 19.2644 20.141 19.3752 20.1139C19.4838 20.0856 19.5953 20.0697 19.7075 20.0664C19.8208 20.054 19.9349 20.0495 20.0488 20.0528L20.3812 20.0913L20.5484 20.1139L20.7022 20.1614C20.9053 20.2141 21.1018 20.2899 21.2877 20.3874C21.4574 20.4733 21.6206 20.5715 21.776 20.6813C21.9161 20.7943 22.045 20.9074 22.1603 21.0046C22.266 21.0974 22.3615 21.2012 22.4451 21.3143C22.5265 21.4092 22.5898 21.4997 22.6418 21.572C22.6978 21.6446 22.7498 21.72 22.7978 21.7981C22.7978 21.7981 22.6961 21.7687 22.531 21.7054C22.4474 21.6737 22.3479 21.6376 22.2417 21.5878C22.1224 21.5315 22.0002 21.4816 21.8755 21.4386C21.7398 21.3889 21.5996 21.3346 21.4527 21.2736C21.3058 21.2126 21.1453 21.1809 20.9893 21.1244C20.8388 21.0796 20.6855 21.0449 20.5304 21.0204L20.4083 20.9933H20.2839L20.0398 20.9684C19.9585 20.9627 19.8769 20.9627 19.7956 20.9684C19.7154 20.9657 19.6352 20.971 19.556 20.9842C19.4791 21.0001 19.4 21.0114 19.3299 21.0204C19.2599 21.0294 19.1807 21.0656 19.1039 21.0814L18.9908 21.1108L18.8823 21.156C18.8123 21.1832 18.7399 21.208 18.6721 21.2397C18.5387 21.3075 18.4031 21.3663 18.2878 21.4409C18.1725 21.5155 18.0617 21.5788 17.96 21.6421C17.8583 21.7054 17.7769 21.7664 17.7113 21.8207C17.6458 21.8749 17.5847 21.9134 17.5485 21.9428L17.4717 21.9812Z" fill="#76413B"/>
<path d="M20.7728 23.8725C20.7728 24.4987 20.601 25.0029 20.3863 25.0029C20.1715 25.0029 20.002 24.4987 20.002 23.8725C20.002 23.2463 20.1738 22.7422 20.3863 22.7422C20.5988 22.7422 20.7728 23.2486 20.7728 23.8725Z" fill="#161114"/>
<path d="M27.9618 23.7329C27.9618 24.3568 27.79 24.8632 27.5752 24.8632C27.3605 24.8632 27.1909 24.3568 27.1909 23.7329C27.1909 23.1089 27.3627 22.6025 27.5752 22.6025C27.7877 22.6025 27.9618 23.0976 27.9618 23.7329Z" fill="#161114"/>
<path d="M34.445 37.4226C33.5046 36.9818 32.3946 36.3737 31.0766 36.168C31.0766 36.168 29.788 40.158 23.9488 40.1897C18.1095 40.158 16.8209 36.168 16.8209 36.168C15.3673 36.3714 14.1533 36.9954 13.1405 37.4656C13.6401 39.1498 14.5534 43.2551 12.9438 49.1871L23.8809 49.2685H24.0166L34.6281 49.1871C33.005 43.2054 33.9477 39.0752 34.445 37.4226Z" fill="#352C38"/>
<path d="M16.1044 42.2446L16.821 36.1769C16.821 36.1769 10.7172 35.5372 7.19287 44.0486C7.19287 44.0486 10.186 46.6415 15.3719 47.0394L16.1044 42.2446Z" fill="#352C38"/>
<path d="M31.8499 42.2446L31.1333 36.1769C31.1333 36.1769 37.2371 35.5372 40.7592 44.0486C40.7592 44.0486 37.7661 46.6415 32.5801 47.0394L31.8499 42.2446Z" fill="#352C38"/>
</g>
</svg>
