<svg width="24" height="20" viewBox="0 0 20 16" fill="none" xmlns="http://www.w3.org/2000/svg">
<path d="M13.2892 6.28962L10.5094 9.06945C10.3429 9.02519 10.1716 9.00168 9.99942 8.99945C9.46902 8.99945 8.96034 9.21015 8.58529 9.5852C8.21024 9.96025 7.99954 10.4689 7.99954 10.9993C8.00177 11.1716 8.02528 11.3428 8.06954 11.5093L7.28959 12.2893C7.19586 12.3822 7.12147 12.4928 7.07071 12.6147C7.01994 12.7365 6.99381 12.8672 6.99381 12.9992C6.99381 13.1312 7.01994 13.2619 7.07071 13.3838C7.12147 13.5056 7.19586 13.6162 7.28959 13.7092C7.38254 13.8029 7.49314 13.8773 7.61499 13.928C7.73684 13.9788 7.86754 14.0049 7.99954 14.0049C8.13155 14.0049 8.26224 13.9788 8.3841 13.928C8.50595 13.8773 8.61654 13.8029 8.7095 13.7092L9.48945 12.9292C9.65591 12.9735 9.8272 12.997 9.99942 12.9992C10.5298 12.9992 11.0385 12.7885 11.4135 12.4135C11.7886 12.0384 11.9993 11.5297 11.9993 10.9993C11.9971 10.8271 11.9736 10.6558 11.9293 10.4894L14.7091 7.70953C14.8974 7.52124 15.0032 7.26586 15.0032 6.99957C15.0032 6.73329 14.8974 6.47791 14.7091 6.28962C14.5208 6.10132 14.2655 5.99554 13.9992 5.99554C13.7329 5.99554 13.4775 6.10132 13.2892 6.28962ZM9.99942 0C8.68628 0 7.386 0.258642 6.17282 0.761158C4.95964 1.26367 3.85731 2.00022 2.92878 2.92875C1.05353 4.804 3.06463e-05 7.34739 3.06463e-05 9.99939C-0.00489364 11.9798 0.583717 13.9163 1.68993 15.559C1.83844 15.7792 2.06831 15.9313 2.32897 15.9819C2.58963 16.0325 2.85973 15.9775 3.07984 15.829C3.29996 15.6805 3.45206 15.4507 3.5027 15.19C3.55333 14.9293 3.49834 14.6592 3.34983 14.4391C2.54439 13.2347 2.08118 11.8342 2.00966 10.3871C1.93814 8.93997 2.26099 7.50059 2.94374 6.22265C3.62648 4.94471 4.64349 3.8762 5.88617 3.1312C7.12885 2.3862 8.55053 1.99269 9.99942 1.99269C11.4483 1.99269 12.87 2.3862 14.1127 3.1312C15.3553 3.8762 16.3724 4.94471 17.0551 6.22265C17.7379 7.50059 18.0607 8.93997 17.9892 10.3871C17.9177 11.8342 17.4544 13.2347 16.649 14.4391C16.5753 14.5481 16.5238 14.6705 16.4975 14.7993C16.4712 14.9282 16.4706 15.061 16.4956 15.1901C16.5207 15.3192 16.571 15.4421 16.6437 15.5517C16.7163 15.6614 16.8099 15.7556 16.919 15.829C17.0845 15.9403 17.2795 15.9995 17.479 15.999C17.6428 15.9993 17.8041 15.9593 17.9488 15.8826C18.0935 15.8058 18.2172 15.6948 18.3089 15.559C19.4151 13.9163 20.0037 11.9798 19.9988 9.99939C19.9988 7.34739 18.9453 4.804 17.0701 2.92875C15.1948 1.0535 12.6514 0 9.99942 0Z" fill="#A7A7A7"/>
</svg>
