<svg width="24" height="24" viewBox="0 0 24 24" fill="none" xmlns="http://www.w3.org/2000/svg">
<path d="M4.32573 15.2888H7.61474C8.48704 15.2888 9.32362 15.6353 9.94043 16.2522C10.5572 16.869 10.9038 17.7055 10.9038 18.5778C10.9038 19.4501 10.5572 20.2867 9.94043 20.9035C9.32362 21.5203 8.48704 21.8669 7.61474 21.8669H4.32573V15.2888Z" stroke="#A7A7A7" stroke-width="2" stroke-linejoin="round"/>
<path d="M4.32573 14.1927V22.9634" stroke="#A7A7A7" stroke-width="2" stroke-linecap="round" stroke-linejoin="round"/>
<path d="M1.03639 16.3849H4.32541" stroke="#A7A7A7" stroke-width="2" stroke-linecap="round" stroke-linejoin="round"/>
<path d="M1.03639 19.6743H4.32541" stroke="#A7A7A7" stroke-width="2" stroke-linecap="round" stroke-linejoin="round"/>
<path d="M10.9034 18.5781H15.2887C15.5795 18.5781 15.8584 18.4626 16.064 18.257C16.2696 18.0514 16.3851 17.7726 16.3851 17.4818V11.4519" stroke="#A7A7A7" stroke-width="2" stroke-linecap="round" stroke-linejoin="round"/>
<path d="M16.3849 1.03639V4.87358" stroke="#A7A7A7" stroke-width="2" stroke-linecap="round" stroke-linejoin="round"/>
<path d="M11.3851 3.16282L13.7105 5.48816" stroke="#A7A7A7" stroke-width="2" stroke-linecap="round" stroke-linejoin="round"/>
<path d="M11.3851 12.6144L13.7105 10.289" stroke="#A7A7A7" stroke-width="2" stroke-linecap="round" stroke-linejoin="round"/>
<path d="M21.3852 3.16282L19.0604 5.48761" stroke="#A7A7A7" stroke-width="2" stroke-linecap="round" stroke-linejoin="round"/>
<path d="M21.3852 12.6138L19.0604 10.289" stroke="#A7A7A7" stroke-width="2" stroke-linecap="round" stroke-linejoin="round"/>
<path d="M16.3851 11.4513C18.2016 11.4513 19.6741 9.97876 19.6741 8.16229C19.6741 6.34582 18.2016 4.87328 16.3851 4.87328C14.5686 4.87328 13.0961 6.34582 13.0961 8.16229C13.0961 9.97876 14.5686 11.4513 16.3851 11.4513Z" stroke="#A7A7A7" stroke-width="2"/>
<path d="M9.80728 8.16261H13.0963" stroke="#A7A7A7" stroke-width="2" stroke-linecap="round" stroke-linejoin="round"/>
<path d="M19.6743 8.16261H22.9633" stroke="#A7A7A7" stroke-width="2" stroke-linecap="round" stroke-linejoin="round"/>
</svg>
