<svg width="20" height="21" viewBox="0 0 20 21" fill="none" xmlns="http://www.w3.org/2000/svg">
<path d="M19 17.4238V10.3804C19.0001 9.89039 18.9001 9.40551 18.7062 8.95548C18.5122 8.50545 18.2285 8.09974 17.8723 7.76322L11.2366 1.49202C10.9024 1.17605 10.4599 1 10 1C9.54008 1 9.0976 1.17605 8.7634 1.49202L2.1277 7.76322C1.7715 8.09974 1.48776 8.50545 1.29385 8.95548C1.09994 9.40551 0.999948 9.89039 1 10.3804V17.4238C1 17.9012 1.18964 18.359 1.52721 18.6966C1.86477 19.0342 2.32261 19.2238 2.8 19.2238H17.2C17.6774 19.2238 18.1352 19.0342 18.4728 18.6966C18.8104 18.359 19 17.9012 19 17.4238Z" stroke="#A7A7A7" stroke-width="2" stroke-linecap="round" stroke-linejoin="round"/>
</svg>
