<svg width="24" height="24" viewBox="0 0 24 24" fill="none" xmlns="http://www.w3.org/2000/svg">
<path d="M12.0003 1.03642V3.22905" stroke="#A7A7A7" stroke-width="2" stroke-linecap="round" stroke-linejoin="round"/>
<path d="M4.56671 4.56671L6.12354 6.12348" stroke="#A7A7A7" stroke-width="2" stroke-linecap="round" stroke-linejoin="round"/>
<path d="M20.7708 11.9997H22.9635" stroke="#A7A7A7" stroke-width="2" stroke-linecap="round" stroke-linejoin="round"/>
<path d="M16.3524 12.548C16.4612 11.6818 16.309 10.8029 15.9152 10.0238C15.5215 9.24467 14.9043 8.60077 14.1424 8.17453C13.3806 7.74829 12.5088 7.55912 11.6389 7.63123C10.7689 7.70333 9.94018 8.03345 9.25891 8.57929" stroke="#A7A7A7" stroke-width="2" stroke-linecap="round" stroke-linejoin="round"/>
<path d="M13.7871 22.9625C14.743 22.9831 15.6682 22.6246 16.3605 21.9651C17.0528 21.3057 17.456 20.3991 17.4818 19.4433C17.4705 18.9682 17.3656 18.4999 17.1731 18.0653C16.9807 17.6307 16.7046 17.2383 16.3604 16.9105C16.0163 16.5826 15.6109 16.3258 15.1675 16.1547C14.7241 15.9836 14.2513 15.9015 13.7761 15.9132H12.307C11.9213 14.7605 11.1793 13.7603 10.1881 13.0568C9.19685 12.3533 8.00771 11.983 6.79231 11.9993C5.30239 11.964 3.85935 12.5214 2.78013 13.5492C1.70092 14.577 1.07376 15.9911 1.03642 17.4809C1.03642 20.5067 3.61286 22.9625 6.79231 22.9625H13.7871V22.9625Z" stroke="#A7A7A7" stroke-width="2" stroke-linecap="round" stroke-linejoin="round"/>
<path d="M17.8761 6.12348L19.433 4.56671" stroke="#A7A7A7" stroke-width="2" stroke-linecap="round" stroke-linejoin="round"/>
</svg>
