<svg width="24" height="33" viewBox="0 0 24 33" fill="none" xmlns="http://www.w3.org/2000/svg">
<path fill-rule="evenodd" clip-rule="evenodd" d="M12 2.25C6.285 2.25 2.25 6.3645 2.25 11.4285C2.25 13.7325 3.198 15.2865 4.3875 16.7685C4.6455 17.091 4.908 17.4015 5.178 17.721L5.322 17.889C5.637 18.264 5.9625 18.651 6.267 19.05C6.873 19.8465 7.4415 20.742 7.7595 21.801C7.83738 22.0842 7.80142 22.3866 7.65929 22.6437C7.51716 22.9007 7.28013 23.092 6.99886 23.1766C6.71759 23.2612 6.41438 23.2325 6.15402 23.0965C5.89366 22.9606 5.6968 22.7282 5.6055 22.449C5.3985 21.759 5.01 21.114 4.476 20.4135C4.19401 20.0493 3.90291 19.6921 3.603 19.3425L3.465 19.1775C3.195 18.8595 2.91 18.5235 2.6325 18.177C1.305 16.524 0 14.4765 0 11.427C0 5.0445 5.1225 0 12 0C18.8775 0 24 5.043 24 11.4285C24 14.4765 22.695 16.524 21.3675 18.1785C21.09 18.5235 20.805 18.8595 20.535 19.179L20.397 19.3425C20.082 19.7145 19.7895 20.064 19.524 20.4135C18.99 21.114 18.6015 21.7605 18.3945 22.449C18.3086 22.7348 18.1126 22.9748 17.8497 23.1162C17.5869 23.2575 17.2786 23.2887 16.9928 23.2028C16.7069 23.1168 16.4669 22.9209 16.3256 22.658C16.1842 22.3951 16.1531 22.0868 16.239 21.801C16.5585 20.742 17.127 19.8465 17.7345 19.05C18.0375 18.651 18.363 18.264 18.6795 17.889L18.822 17.721C19.092 17.4015 19.3545 17.091 19.6125 16.77C20.802 15.285 21.75 13.7325 21.75 11.4285C21.75 6.3645 17.715 2.25 12 2.25ZM8.25 31.125C8.25 30.8266 8.36853 30.5405 8.57951 30.3295C8.79048 30.1185 9.07663 30 9.375 30H14.625C14.9234 30 15.2095 30.1185 15.4205 30.3295C15.6315 30.5405 15.75 30.8266 15.75 31.125C15.75 31.4234 15.6315 31.7095 15.4205 31.9205C15.2095 32.1315 14.9234 32.25 14.625 32.25H9.375C9.07663 32.25 8.79048 32.1315 8.57951 31.9205C8.36853 31.7095 8.25 31.4234 8.25 31.125ZM7.125 25.5C6.82663 25.5 6.54048 25.6185 6.32951 25.8295C6.11853 26.0405 6 26.3266 6 26.625C6 26.9234 6.11853 27.2095 6.32951 27.4205C6.54048 27.6315 6.82663 27.75 7.125 27.75H16.875C17.1734 27.75 17.4595 27.6315 17.6705 27.4205C17.8815 27.2095 18 26.9234 18 26.625C18 26.3266 17.8815 26.0405 17.6705 25.8295C17.4595 25.6185 17.1734 25.5 16.875 25.5H7.125Z" fill="black"/>
</svg>
